<?xml version="1.0" standalone="no"?><!DOCTYPE svg PUBLIC "-//W3C//DTD SVG 1.1//EN" "http://www.w3.org/Graphics/SVG/1.1/DTD/svg11.dtd"><svg t="1562643345824" class="icon" viewBox="0 0 1878 1024" version="1.1" xmlns="http://www.w3.org/2000/svg" p-id="13160" xmlns:xlink="http://www.w3.org/1999/xlink" width="366.796875" height="200"><defs><style type="text/css"></style></defs><path d="M255.734715 567.709845m-191.005181 0a191.005181 191.005181 0 1 0 382.010362 0 191.005181 191.005181 0 1 0-382.010362 0Z" fill="#F1F3F5" p-id="13161"></path><path d="M255.734715 764.020725C147.498446 764.020725 59.423834 675.946114 59.423834 567.709845S147.498446 371.398964 255.734715 371.398964s196.310881 88.074611 196.310881 196.310881S363.970984 764.020725 255.734715 764.020725z m0-382.010362c-101.86943 0-185.699482 83.830052-185.699482 185.699482S153.865285 753.409326 255.734715 753.409326s185.699482-83.830052 185.699482-185.699481S358.665285 382.010363 255.734715 382.010363z" fill="#A4B1C1" p-id="13162"></path><path d="M460.534715 667.456995m-65.790674 0a65.790674 65.790674 0 1 0 131.581348 0 65.790674 65.790674 0 1 0-131.581348 0Z" fill="#F1F3F5" p-id="13163"></path><path d="M460.534715 737.492228a71.096373 71.096373 0 1 1 71.096373-71.096373c0 39.262176-32.895337 71.096373-71.096373 71.096373z m0-130.520207c-32.895337 0-60.484974 26.528497-60.484974 60.484974s26.528497 60.484974 60.484974 60.484974S519.958549 700.352332 519.958549 667.456995s-26.528497-60.484974-59.423834-60.484974z" fill="#A4B1C1" p-id="13164"></path><path d="M253.612435 561.343005m-30.773057 0a30.773057 30.773057 0 1 0 61.546114 0 30.773057 30.773057 0 1 0-61.546114 0Z" fill="#F1F3F5" p-id="13165"></path><path d="M253.612435 596.360622c-20.161658 0-36.078756-15.917098-36.078756-36.078757s15.917098-36.078756 36.078756-36.078756 36.078756 15.917098 36.078757 36.078756-16.978238 36.078756-36.078757 36.078757z m0-60.484974c-13.794819 0-25.467358 11.672539-25.467357 25.467357 0 13.794819 11.672539 25.467358 25.467357 25.467358s25.467358-11.672539 25.467358-25.467358c-1.06114-13.794819-11.672539-25.467358-25.467358-25.467357z" fill="#A4B1C1" p-id="13166"></path><path d="M268.351668 537.605306l1.676601-5.040415L488.548808 605.168083l-1.676601 5.040414zM229.52456 583.361658l3.098528-4.308228 210.848497 152.114404-3.109139 4.308228z" fill="#A4B1C1" p-id="13167"></path><path d="M934.864249 460.534715c-3.18342-9.550259-6.366839-19.100518-8.489119-28.650777-1.06114-3.18342-4.24456-5.305699-7.42798-3.18342-10.611399 5.305699-20.161658 11.672539-30.773057 16.978238-7.427979 4.24456-14.855959 7.427979-21.222798 11.672539-3.18342 2.12228-9.550259 4.24456-7.427979 4.24456-9.550259-1.06114-23.345078-8.489119-31.834197-11.672539-9.550259-3.18342-19.100518-6.366839-29.711917-10.611399l9.550259-44.567876c6.366839 3.18342 12.733679 5.305699 19.100518 8.48912 6.366839 3.18342 11.672539-6.366839 5.3057-9.550259-19.100518-8.489119-39.262176-16.978238-58.362695-25.467358h-2.122279v-2.12228l-21.222798 1.06114 4.244559 105.05285-253.612435-64.729534 7.427979-70.035233-21.222798-2.12228-8.489119 74.279793L222.839378 562.404145l228.145078 105.05285 10.611399 18.039378L753.409326 517.836269l8.48912 239.817617 21.222798-1.06114-13.794819-377.765803c8.489119 4.24456 16.978238 7.427979 26.528497 11.672539-3.18342 16.978238-7.427979 33.956477-10.611399 50.934715-1.06114 3.18342 1.06114 5.305699 3.18342 6.366839 11.672539 4.24456 24.406218 8.489119 36.078756 12.733679 8.489119 3.18342 23.345078 11.672539 32.895337 11.672539 9.550259-1.06114 21.222798-10.611399 28.650777-14.855959 9.550259-5.305699 20.161658-10.611399 29.711918-15.917098 2.12228 6.366839 5.305699 12.733679 6.366839 18.039378l-3.18342 3.18342-9.550259 9.550259c-14.855959 13.794819-28.650777 27.589637-43.506736 41.384456-5.305699 4.24456 2.12228 12.733679 7.42798 7.427979 19.100518-19.100518 38.201036-37.139896 57.301554-55.179274 4.24456-2.12228 4.24456-4.24456 4.24456-5.3057zM450.984456 644.111917l-182.516062-83.830052L488.124352 426.578238l235.573057 59.423835-272.712953 158.109844zM836.178238 673.823834L797.977202 732.186528l61.546114-46.690155z" fill="#777777" p-id="13168"></path><path d="M686.557513 685.496373l54.118135 46.690155-35.017617-58.362694zM657.906736 714.14715l65.790673 28.650777-49.873575-39.262176zM802.221762 750.225907l80.646632-27.589638-23.345078-19.100518z" fill="#777777" p-id="13169"></path><path d="M413.84456 289.691192s19.100518 53.056995 49.873575 55.179274c29.711917 2.12228 97.62487 0 97.62487 0l23.345078 8.489119s65.790674-10.611399 0-40.323316-148.559585-42.445596-148.559586-42.445595-30.773057 1.06114-22.283937 19.100518z" fill="#FFFFFF" p-id="13170"></path><path d="M582.565803 358.665285l-23.345078-8.489119c-8.489119 0-68.974093 2.12228-96.56373 0-32.895337-2.12228-51.995855-54.118135-54.118135-58.362694-3.18342-7.427979-2.12228-12.733679 0-15.917099 6.366839-9.550259 24.406218-10.611399 25.467358-10.611399 2.12228 0 85.952332 12.733679 150.681865 42.445596 23.345078 10.611399 32.895337 20.161658 31.834197 30.773057-2.12228 14.855959-28.650777 19.100518-32.895337 20.161658h-1.06114z m-21.222798-19.100518l22.283938 8.489119c10.611399-2.12228 22.283938-6.366839 23.345078-10.611399 0-1.06114 0-7.427979-25.467358-19.100518-63.668394-29.711917-146.437306-41.384456-147.498445-42.445596-5.305699 0-13.794819 2.12228-15.917099 5.3057 0 0-1.06114 2.12228 1.06114 6.366839 5.305699 13.794819 23.345078 49.873575 44.567876 50.934715 29.711917 3.18342 96.563731 1.06114 97.62487 1.06114z" fill="#A2B1BF" p-id="13171"></path><path d="M209.04456 764.020725h1634.15544c6.366839 0 6.366839-10.611399 0-10.611399h-1634.15544c-7.427979 0-7.427979 10.611399 0 10.611399z" fill="#777777" p-id="13172"></path><path d="M1223.494301 697.168912l-116.725389 49.873575c-21.222798 9.550259-46.690155-1.06114-56.240415-22.283938L827.689119 198.433161c-9.550259-21.222798 1.06114-46.690155 22.283938-56.240415l116.725389-49.873575c21.222798-9.550259 46.690155 1.06114 56.240414 22.283938l222.839378 525.264249c9.550259 23.345078-1.06114 47.751295-22.283937 57.301554z" fill="#F7F7F7" p-id="13173"></path><path d="M1089.790674 755.531606c-6.366839 0-11.672539-1.06114-18.039379-3.183419-11.672539-5.305699-21.222798-13.794819-26.528497-25.467358L822.38342 201.61658c-5.305699-11.672539-5.305699-24.406218 0-37.139896 5.305699-11.672539 13.794819-21.222798 25.467357-26.528497l116.725389-49.873576c11.672539-5.305699 24.406218-5.305699 37.139896 0 11.672539 5.305699 21.222798 13.794819 26.528498 25.467358l222.839378 525.264249c5.305699 11.672539 5.305699 24.406218 0 37.139896-5.305699 11.672539-13.794819 21.222798-25.467358 26.528497l-116.725388 49.873576c-6.366839 2.12228-12.733679 3.18342-19.100518 3.183419zM983.676684 95.502591c-5.305699 0-9.550259 1.06114-14.855959 3.183419l-116.725388 49.873575c-9.550259 4.24456-15.917098 11.672539-20.161658 20.161659-4.24456 9.550259-3.18342 19.100518 0 28.650777l222.839378 525.264248c4.24456 9.550259 11.672539 15.917098 20.161658 20.161658 9.550259 4.24456 19.100518 3.18342 28.650777 0l116.725389-49.873575c9.550259-4.24456 15.917098-11.672539 20.161658-20.161658s3.18342-19.100518 0-28.650777L1018.694301 117.786528c-4.24456-9.550259-11.672539-15.917098-20.161659-20.161658-5.305699-1.06114-9.550259-2.12228-14.855958-2.122279z" fill="#AAAAAA" p-id="13174"></path><path d="M1096.537595 640.467829a31.834197 31.834197 0 1 0 58.61965-24.847557 31.834197 31.834197 0 1 0-58.61965 24.847557Z" fill="#777777" p-id="13175"></path><path d="M1091.912953 549.670466c-6.366839 2.12228-12.733679 0-15.917098-6.366839L932.741969 205.86114c-2.12228-6.366839 0-12.733679 6.366839-15.917099 6.366839-2.12228 12.733679 0 15.917099 6.36684l143.253886 337.442487c2.12228 6.366839-1.06114 13.794819-6.36684 15.917098z" fill="#B2B2B2" p-id="13176"></path><path d="M1432.53886 758.715026h-126.275648c-23.345078 0-42.445596-19.100518-42.445595-42.445596V145.376166c0-23.345078 19.100518-42.445596 42.445595-42.445596H1432.53886c23.345078 0 42.445596 19.100518 42.445596 42.445596v570.893264c1.06114 23.345078-18.039378 42.445596-42.445596 42.445596z" fill="#F7F7F7" p-id="13177"></path><path d="M1432.53886 764.020725h-126.275648c-26.528497 0-47.751295-21.222798-47.751295-47.751295V145.376166c0-26.528497 21.222798-47.751295 47.751295-47.751296H1432.53886c26.528497 0 47.751295 21.222798 47.751295 47.751296v570.893264c1.06114 26.528497-21.222798 47.751295-47.751295 47.751295z m-126.275648-655.784456c-20.161658 0-37.139896 16.978238-37.139896 37.139897v570.893264c0 20.161658 16.978238 37.139896 37.139896 37.139896H1432.53886c20.161658 0 37.139896-16.978238 37.139896-37.139896V145.376166c0-20.161658-16.978238-37.139896-37.139896-37.139897h-126.275648z" fill="#AAAAAA" p-id="13178"></path><path d="M1369.931606 656.845596m-31.834197 0a31.834197 31.834197 0 1 0 63.668394 0 31.834197 31.834197 0 1 0-63.668394 0Z" fill="#777777" p-id="13179"></path><path d="M1368.870466 570.893264c-6.366839 0-11.672539-5.305699-11.672539-11.672539V192.066321c0-6.366839 5.305699-11.672539 11.672539-11.672539 6.366839 0 11.672539 5.305699 11.672539 11.672539v367.154404c0 6.366839-5.305699 11.672539-11.672539 11.672539z" fill="#B2B2B2" p-id="13180"></path><path d="M1672.356477 758.715026h-126.275648c-23.345078 0-42.445596-19.100518-42.445596-42.445596V145.376166c0-23.345078 19.100518-42.445596 42.445596-42.445596h126.275648c23.345078 0 42.445596 19.100518 42.445596 42.445596v570.893264c0 23.345078-19.100518 42.445596-42.445596 42.445596z" fill="#F7F7F7" p-id="13181"></path><path d="M1672.356477 764.020725h-126.275648c-26.528497 0-47.751295-21.222798-47.751295-47.751295V145.376166c0-26.528497 21.222798-47.751295 47.751295-47.751296h126.275648c26.528497 0 47.751295 21.222798 47.751295 47.751296v570.893264c0 26.528497-21.222798 47.751295-47.751295 47.751295z m-127.336788-655.784456c-20.161658 0-37.139896 16.978238-37.139896 37.139897v570.893264c0 20.161658 16.978238 37.139896 37.139896 37.139896h126.275648c20.161658 0 37.139896-16.978238 37.139896-37.139896V145.376166c0-20.161658-16.978238-37.139896-37.139896-37.139897h-126.275648z" fill="#AAAAAA" p-id="13182"></path><path d="M1608.688083 656.845596m-31.834197 0a31.834197 31.834197 0 1 0 63.668394 0 31.834197 31.834197 0 1 0-63.668394 0Z" fill="#777777" p-id="13183"></path><path d="M1607.626943 570.893264c-6.366839 0-11.672539-5.305699-11.672539-11.672539V192.066321c0-6.366839 5.305699-11.672539 11.672539-11.672539 6.366839 0 11.672539 5.305699 11.672539 11.672539v367.154404c1.06114 6.366839-4.24456 11.672539-11.672539 11.672539z" fill="#B2B2B2" p-id="13184"></path><path d="M209.04456 792.671503h1635.21658s-27.589637 215.411399-505.102591 201.61658c-478.574093-13.794819-409.6-159.170984-758.715026-148.559586s-371.398964-53.056995-371.398963-53.056994z" fill="#E6E6E6" p-id="13185"></path></svg>