<?xml version="1.0" standalone="no"?><!DOCTYPE svg PUBLIC "-//W3C//DTD SVG 1.1//EN" "http://www.w3.org/Graphics/SVG/1.1/DTD/svg11.dtd"><svg t="1529336170381" class="icon" style="" viewBox="0 0 1024 1024" version="1.1" xmlns="http://www.w3.org/2000/svg" p-id="1267" xmlns:xlink="http://www.w3.org/1999/xlink" width="200" height="200"><defs><style type="text/css"></style></defs><path d="M905.752381 0H509.561905C453.485714 0 408.380952 43.885714 408.380952 98.742857V341.333333c0 51.2 39.009524 93.866667 90.209524 98.742857v30.476191c0 24.380952 13.409524 46.32381 34.133334 57.295238 9.752381 4.87619 20.72381 7.314286 30.47619 7.314286 12.190476 0 25.6-3.657143 35.352381-10.971429-10.971429 7.314286-23.161905 10.971429-35.352381 10.971429h-6.095238c0 9.752381 1.219048 18.285714 1.219048 28.038095H343.771429c1.219048-53.638095 6.095238-102.4 13.409523-143.847619 30.47619 4.87619 62.171429 8.533333 93.866667 8.533333h8.533333c-21.942857-12.190476-39.009524-31.695238-46.323809-54.857143-15.847619-1.219048-30.47619-3.657143-46.32381-6.095238 12.190476-47.542857 26.819048-84.114286 40.228572-109.714285v-97.52381C188.952381 181.638095 18.285714 366.933333 18.285714 591.238095 18.285714 830.171429 212.114286 1024 451.047619 1024S883.809524 830.171429 883.809524 591.238095c0-52.419048-9.752381-103.619048-26.819048-149.942857H798.47619c17.066667 37.790476 26.819048 79.238095 30.476191 123.12381H613.180952c0-15.847619-1.219048-30.47619-2.438095-46.32381l118.247619-76.8h176.761905c54.857143 0 99.961905-45.104762 99.961905-99.961905V98.742857C1005.714286 45.104762 960.609524 0 905.752381 0zM558.32381 618.057143c-1.219048 53.638095-6.095238 101.180952-13.409524 143.847619-30.47619-4.87619-62.171429-8.533333-93.866667-8.533333s-63.390476 2.438095-93.866667 8.533333c-7.314286-41.447619-12.190476-90.209524-13.409523-143.847619h214.552381zM365.714286 223.085714c-20.72381 32.914286-37.790476 79.238095-51.2 132.876191-40.228571-12.190476-78.019048-28.038095-112.152381-49.980953 46.32381-40.228571 102.4-69.485714 163.352381-82.895238z m-202.361905 121.904762c41.447619 28.038095 88.990476 48.761905 140.190476 63.390476-8.533333 47.542857-13.409524 99.961905-14.628571 156.038096H73.142857c6.095238-84.114286 39.009524-159.695238 90.209524-219.428572zM73.142857 618.057143h215.771429c1.219048 56.07619 6.095238 108.495238 14.628571 156.038095-51.2 14.628571-97.52381 35.352381-140.190476 63.390476-51.2-59.733333-84.114286-135.314286-90.209524-219.428571z m130.438095 258.438095c34.133333-20.72381 71.92381-37.790476 112.152381-49.980952 13.409524 53.638095 30.47619 98.742857 51.2 132.87619-62.171429-13.409524-118.247619-42.666667-163.352381-82.895238z m247.466667 93.866667c-19.504762 0-58.514286-53.638095-82.895238-154.819048 26.819048-4.87619 54.857143-7.314286 82.895238-7.314286s56.07619 2.438095 82.895238 7.314286c-25.6 101.180952-63.390476 154.819048-82.895238 154.819048z m84.114286-9.752381c20.72381-34.133333 37.790476-79.238095 51.2-132.876191 40.228571 12.190476 78.019048 28.038095 112.152381 49.980953-46.32381 39.009524-101.180952 68.266667-163.352381 82.895238z m78.019047-342.552381h215.771429c-6.095238 84.114286-39.009524 159.695238-90.209524 219.428571-41.447619-28.038095-88.990476-48.761905-140.190476-63.390476 7.314286-47.542857 13.409524-99.961905 14.628571-156.038095zM955.733333 341.333333c0 28.038095-23.161905 49.980952-51.2 49.980953H713.142857l-141.409524 92.647619c-7.314286 4.87619-13.409524 2.438095-15.847619 0-2.438095-1.219048-8.533333-4.87619-8.533333-13.409524v-79.238095h-39.009524c-28.038095 0-51.2-23.161905-51.2-49.980953V98.742857c1.219048-26.819048 24.380952-49.980952 52.419048-49.980952h396.190476C933.790476 48.761905 956.952381 71.92381 956.952381 98.742857V341.333333z" fill="#00C1DE" p-id="1268"></path><path d="M613.180952 198.704762c-9.752381-4.87619-20.72381-4.87619-30.47619 0s-15.847619 15.847619-14.628572 26.819048c0 10.971429 6.095238 20.72381 14.628572 26.819047 9.752381 4.87619 20.72381 4.87619 30.47619 0s14.628571-15.847619 14.628572-26.819047c0-10.971429-6.095238-20.72381-14.628572-26.819048zM722.895238 198.704762c-9.752381-4.87619-20.72381-4.87619-30.47619 0s-15.847619 15.847619-14.628572 26.819048c0 10.971429 6.095238 20.72381 14.628572 26.819047 9.752381 4.87619 20.72381 4.87619 30.47619 0s14.628571-15.847619 14.628572-26.819047c0-10.971429-6.095238-20.72381-14.628572-26.819048zM832.609524 198.704762c-9.752381-4.87619-20.72381-4.87619-30.476191 0s-15.847619 15.847619-14.628571 26.819048c0 10.971429 6.095238 20.72381 14.628571 26.819047 9.752381 4.87619 20.72381 4.87619 30.476191 0s14.628571-15.847619 14.628571-26.819047c0-10.971429-6.095238-20.72381-14.628571-26.819048z" fill="#00C1DE" p-id="1269"></path></svg>