<?xml version="1.0" standalone="no"?><!DOCTYPE svg PUBLIC "-//W3C//DTD SVG 1.1//EN" "http://www.w3.org/Graphics/SVG/1.1/DTD/svg11.dtd"><svg t="1529302275920" class="icon" style="" viewBox="0 0 1030 1024" version="1.1" xmlns="http://www.w3.org/2000/svg" p-id="2508" xmlns:xlink="http://www.w3.org/1999/xlink" width="201.171875" height="200"><defs><style type="text/css"></style></defs><path d="M339.2 332.8C339.2 428.8 416 512 512 512c96 0 172.8-76.8 172.8-179.2 0 96 76.8 179.2 172.8 179.2 96 0 172.8-76.8 172.8-179.2L960 0H64L0 332.8C0 428.8 76.8 512 172.8 512c89.6-6.4 166.4-83.2 166.4-179.2zM864 576v320h-704V576H64v320c0 70.4 57.6 128 128 128h640c70.4 0 128-57.6 128-128V576h-96z" fill="#FF654C" p-id="2509"></path></svg>