<?xml version="1.0" standalone="no"?><!DOCTYPE svg PUBLIC "-//W3C//DTD SVG 1.1//EN" "http://www.w3.org/Graphics/SVG/1.1/DTD/svg11.dtd"><svg t="1529219014146" class="icon" style="" viewBox="0 0 1024 1024" version="1.1" xmlns="http://www.w3.org/2000/svg" p-id="3436" xmlns:xlink="http://www.w3.org/1999/xlink" width="200" height="200"><defs><style type="text/css"></style></defs><path d="M512 512m-512 0a512 512 0 1 0 1024 0 512 512 0 1 0-1024 0Z" fill="#2DDEB5" p-id="3437"></path><path d="M716.8 522.24c0-28.16-20.48-53.76-48.64-58.88-43.52-7.68-87.04-12.8-130.56-15.36 30.72-30.72 58.88-64 81.92-99.84 17.92-23.04 12.8-56.32-5.12-76.8-20.48-20.48-51.2-23.04-74.24-7.68-87.04 58.88-161.28 133.12-222.72 222.72v2.56c0 2.56-2.56 2.56-2.56 5.12s-2.56 2.56-2.56 5.12 0 2.56-2.56 5.12c0 2.56 0 2.56-2.56 5.12v25.6c0 2.56 0 2.56 2.56 5.12 0 2.56 0 2.56 2.56 5.12 0 2.56 2.56 2.56 2.56 5.12 0 0 0 2.56 2.56 2.56 0 2.56 2.56 2.56 5.12 5.12l2.56 2.56s0 2.56 2.56 2.56l2.56 2.56 2.56 2.56c2.56 2.56 2.56 2.56 5.12 2.56 0 0 2.56 0 2.56 2.56 2.56 0 5.12 2.56 5.12 2.56s2.56 0 2.56 2.56c2.56 0 5.12 0 5.12 2.56h2.56c43.52 7.68 89.6 10.24 133.12 12.8-30.72 33.28-61.44 69.12-87.04 107.52-15.36 23.04-12.8 53.76 7.68 74.24 20.48 20.48 53.76 23.04 76.8 5.12 87.04-64 161.28-138.24 220.16-217.6 7.68-10.24 10.24-23.04 10.24-35.84v-5.12z" fill="#FFFFFF" p-id="3438"></path></svg>