<?xml version="1.0" standalone="no"?><!DOCTYPE svg PUBLIC "-//W3C//DTD SVG 1.1//EN" "http://www.w3.org/Graphics/SVG/1.1/DTD/svg11.dtd"><svg t="1557157583987" class="icon" style="" viewBox="0 0 1024 1024" version="1.1" xmlns="http://www.w3.org/2000/svg" p-id="5765" xmlns:xlink="http://www.w3.org/1999/xlink" width="128" height="128"><defs><style type="text/css"></style></defs><path d="M873.786711 802.110294c-0.563172 42.289086-16.690365 80.021599-49.251938 115.296636a33.892705 33.892705 0 0 1-29.080146 10.649067 32.971151 32.971151 0 0 1-25.18914-17.304735 40.957952 40.957952 0 0 1 4.710164-46.077696 102.906855 102.906855 0 0 0 27.032249-68.553372v-60.617769-215.592421a36.350182 36.350182 0 0 0-3.532624-16.024798 22.014899 22.014899 0 0 0-24.728363-10.751463c-12.850557 3.430228-18.687066 11.161042-18.891856 25.189141a1995.164242 1995.164242 0 0 0 0 58.057897v40.138793a82.581471 82.581471 0 0 1-2.406279 20.478976 32.919954 32.919954 0 0 1-33.841508 25.137943h-0.255988a32.971151 32.971151 0 0 1-33.79031-25.59872 84.936553 84.936553 0 0 1-2.303885-20.478976v-52.733363-83.861407a24.625969 24.625969 0 0 0-6.911654-17.919104 24.113994 24.113994 0 0 0-17.816709-6.297285c-14.028099 0-22.168492 9.317934-22.270887 24.830758 0 13.464927 0 26.981051-0.255987 40.497175 0 21.451727 0 43.620219-0.563172 65.481526-0.40958 24.011599-14.642468 39.524424-36.350182 39.524424-21.656517 0-35.838208-15.666417-35.838209-39.780411V458.473076a92.155392 92.155392 0 0 0-0.921553-15.00085 24.677166 24.677166 0 0 0-26.41788-20.478976 23.090045 23.090045 0 0 0-22.936453 24.625969v101.319734a134.546873 134.546873 0 0 1-2.406279 24.728364 31.691215 31.691215 0 0 1-22.0149 25.59872 36.708565 36.708565 0 0 1-31.38403-5.119744 39.524424 39.524424 0 0 1-17.048748-29.336134c-0.460777-5.119744-0.40958-10.700265-0.40958-15.871206V420.638168 213.134943a106.951452 106.951452 0 0 0-1.689515-19.40383c-1.228739-6.450877-4.60777-15.359232-19.915804-17.560722a21.349333 21.349333 0 0 0-23.39723 12.850558 72.59797 72.59797 0 0 0-2.764662 22.322084v361.761112c0 3.9934 0 8.140393-0.307185 12.38978a44.029799 44.029799 0 0 1-31.79361 40.957952 42.39148 42.39148 0 0 1-47.869607-16.178391c-9.061947-11.673016-18.072696-23.448428-27.083445-35.172641-13.772111-18.021499-28.005-36.60617-42.289086-54.678866a31.742413 31.742413 0 0 0-22.731663-13.106545 30.360082 30.360082 0 0 0-23.090046 10.239488c-6.348483 6.450877-12.082596 16.690365 0 39.01245l21.758912 40.548372c45.00255 83.759012 91.541023 170.333883 138.233088 255.065647 28.158592 51.19744 71.010849 78.895255 127.328034 81.915904 41.418729 2.355082 83.810209 1.843108 124.870557 1.382331h20.99095a31.128044 31.128044 0 0 1 30.308885 20.478976 39.012449 39.012449 0 0 1-35.838209 52.221389h-6.092495c-18.738263 0.255987-37.732513 0.563172-56.829158 0.563172-27.493025 0-55.139643-0.563172-82.530274-2.508675-82.735063-5.836508-145.451927-46.692065-186.358682-121.491525-50.275886-92.155392-103.111644-190.044898-161.579121-300.016999-17.867907-33.585521-17.867907-68.60457 0-98.503875a104.647568 104.647568 0 0 1 87.035648-50.839058h0.767962a95.227239 95.227239 0 0 1 75.977001 35.070246c8.549973 10.239488 16.99755 20.99095 25.59872 32.20319V424.068397 206.684066c0-39.114844 17.304735-68.143793 51.453427-86.267687a91.387431 91.387431 0 0 1 96.251188 4.146993c28.875356 18.277486 44.388181 47.20404 44.79776 83.656617 0.358382 32.766362 0.307185 66.044698 0 98.247888v47.562421c42.698665-8.242788 76.79616 3.327834 101.934103 34.558273 40.087596-17.560722 95.944003-15.922404 130.707065 43.108244 37.578921-12.543373 71.010849-5.887706 99.476626 19.762212a95.380831 95.380831 0 0 1 30.718464 70.754862v58.313885c-0.153592 72.59797 0.102395 147.704615-0.972751 221.58252z" fill="#1296db" p-id="5766"></path><path d="M560.765562 300.016999a35.838208 35.838208 0 0 1-33.073547-49.712714 122.873856 122.873856 0 0 0 9.573922-47.869607 124.256187 124.256187 0 1 0-248.512375 0 122.873856 122.873856 0 0 0 9.573922 47.869607 35.838208 35.838208 0 0 1-66.147093 27.697815 195.932603 195.932603 0 1 1 361.658717 0 35.838208 35.838208 0 0 1-33.073546 22.014899z" fill="#1296db" p-id="5767"></path></svg>